<svg xmlns="http://www.w3.org/2000/svg" xmlns:xlink="http://www.w3.org/1999/xlink" viewBox="0 0 40 40"><defs><style>.cls-1{fill:none;}.cls-2{clip-path:url(#clip-path);}.cls-3{fill:#fff;}.cls-4{fill:#25477c;}.cls-5{fill:#c7483d;}</style><clipPath id="clip-path"><circle class="cls-1" cx="20" cy="20" r="20"/></clipPath></defs><g id="Capa_2" data-name="Capa 2"><g id="Capa_1-2" data-name="Capa 1"><g class="cls-2"><rect class="cls-3" x="11.07" y="-1.41" width="17.46" height="42.81"/><path class="cls-4" d="M11.5,20c0,6.84,0,13.69,0,20.54,0,.69-.1.87-.54.87-4.62,0-9.25,0-13.87,0-1.51,0-2.39-1.72-2.38-3.77,0-11.81,0-23.63,0-35.44C-5.26,0-4.41-1.38-3-1.39c4.71,0,9.41,0,14.12,0,.41,0,.43.27.43.79Q11.49,9.69,11.5,20Z"/><path class="cls-5" d="M28.53,20c0-6.84,0-13.69,0-20.53,0-.69.1-.88.55-.88,4.62,0,9.24,0,13.86,0,1.54,0,2.36,1.81,2.35,3.8,0,11.76,0,23.52,0,35.27,0,2.36-.83,3.71-2.29,3.71-4.65,0-9.3,0-13.95,0-.4,0-.49-.17-.49-.79Q28.55,30.31,28.53,20Z"/></g></g></g></svg>